<?xml version="1.0" encoding="utf-8"?>
<!-- Generator: Adobe Illustrator 19.2.1, SVG Export Plug-In . SVG Version: 6.00 Build 0)  -->
<svg version="1.1" xmlns="http://www.w3.org/2000/svg" xmlns:xlink="http://www.w3.org/1999/xlink" x="0px" y="0px"
	 viewBox="0 0 960 960" enable-background="new 0 0 960 960" xml:space="preserve">
<g id="row-1">
	<path id="hash" d="M720,420c33.1,0,60-26.9,60-60s-26.9-60-60-60h-60v-60c0-33.1-26.9-60-60-60s-60,26.9-60,60v60H420v-60
		c0-33.1-26.9-60-60-60s-60,26.9-60,60v60h-60c-33.1,0-60,26.9-60,60s26.9,60,60,60h60v120h-60c-33.1,0-60,26.9-60,60s26.9,60,60,60
		h60v60c0,33.1,26.9,60,60,60s60-26.9,60-60v-60h120v60c0,33.1,26.9,60,60,60s60-26.9,60-60v-60h60c33.1,0,60-26.9,60-60
		s-26.9-60-60-60h-60V420H720z M540,540H420V420h120V540z M780,0H180C80.6,0,0,80.6,0,180v600c0,99.4,80.6,180,180,180h600
		c99.4,0,180-80.6,180-180V180C960,80.6,879.4,0,780,0z M900,780c0,66.3-53.7,120-120,120H180c-66.3,0-120-53.7-120-120V180
		c0-66.3,53.7-120,120-120h600c66.3,0,120,53.7,120,120V780z"/>
</g>
<g id="guides">
</g>
</svg>
