<?xml version="1.0" encoding="utf-8"?>
<!-- Generator: Adobe Illustrator 19.2.1, SVG Export Plug-In . SVG Version: 6.00 Build 0)  -->
<svg version="1.1" xmlns="http://www.w3.org/2000/svg" xmlns:xlink="http://www.w3.org/1999/xlink" x="0px" y="0px"
	 viewBox="0 0 1560 960" enable-background="new 0 0 1560 960" xml:space="preserve">
<g id="row-1">
	<path id="list-recent" d="M960,90c0-49.7,40.3-90,90-90c180,0,240,0,420,0c49.7,0,90,40.3,90,90s-40.3,90-90,90c-180,0-240,0-420,0
		C1000.3,180,960,139.7,960,90z M1470,360c-120,0-180,0-300,0c-49.7,0-90,40.3-90,90s40.3,90,90,90c120,0,180,0,300,0
		c49.7,0,90-40.3,90-90S1519.7,360,1470,360z M1470,720c-180,0-240,0-420,0c-49.7,0-90,40.3-90,90s40.3,90,90,90c180,0,240,0,420,0
		c49.7,0,90-40.3,90-90S1519.7,720,1470,720z M900,450c0,248.5-201.5,450-450,450C201.5,900,0,698.5,0,450S201.5,0,450,0
		C698.5,0,900,201.5,900,450z M660,480c0-33.1-26.9-60-60-60c-63.9,0-82.4,0-120,0c0-60.7,0-106.2,0-180c0-33.1-26.9-60-60-60
		s-60,26.9-60,60c0,96,0,144,0,240c0,33.1,26.9,60,60,60c90,0,90,0,180,0C633.1,540,660,513.1,660,480z"/>
</g>
<g id="guides">
</g>
</svg>
