<?xml version="1.0" encoding="utf-8"?>
<!-- Generator: Adobe Illustrator 19.2.1, SVG Export Plug-In . SVG Version: 6.00 Build 0)  -->
<svg version="1.1" xmlns="http://www.w3.org/2000/svg" xmlns:xlink="http://www.w3.org/1999/xlink" x="0px" y="0px"
	 viewBox="0 0 1320 960" enable-background="new 0 0 1320 960" xml:space="preserve">
<g id="row-1">
	<path id="list-ascend" d="M570,359c-20.4,0-39.2-6.8-54.2-18.2c-44.2-33.2-72.1-54.1-95.8-71.8c0,163.1,0,351.9,0,480
		c0,49.7-40.3,90-90,90s-90-40.3-90-90c0-128.1,0-316.9,0-480c-23.6,17.7-51.5,38.7-95.8,71.8C129.2,352.2,110.4,359,90,359
		c-49.7,0-90-40.3-90-90c0-29.7,14.3-56,36.5-72.4c119.4-89.6,119.7-89.8,239.3-179.5C290.8,5.8,309.6-1,330-1s39.2,6.8,54.2,18.2
		c119.6,89.7,119.8,89.9,239.3,179.5C645.7,213,660,239.3,660,269C660,318.7,619.7,359,570,359z M1320,89c0-49.7-40.3-90-90-90
		c-150,0-210,0-360,0c-49.7,0-90,40.3-90,90s40.3,90,90,90c150,0,210,0,360,0C1279.7,179,1320,138.7,1320,89z M1320,449
		c0-49.7-40.3-90-90-90c-180,0-210,0-390,0c-49.7,0-90,40.3-90,90s40.3,90,90,90c180,0,210,0,390,0C1279.7,539,1320,498.7,1320,449z
		 M1230,719c-110.8,0-429.2,0-540,0c-49.7,0-90,40.3-90,90s40.3,90,90,90c110.8,0,429.2,0,540,0c49.7,0,90-40.3,90-90
		S1279.7,719,1230,719z"/>
</g>
<g id="guides">
</g>
</svg>
