<?xml version="1.0" encoding="utf-8"?>
<!-- Generator: Adobe Illustrator 19.2.1, SVG Export Plug-In . SVG Version: 6.00 Build 0)  -->
<svg version="1.1" xmlns="http://www.w3.org/2000/svg" xmlns:xlink="http://www.w3.org/1999/xlink" x="0px" y="0px"
	 viewBox="0 0 1440 960" enable-background="new 0 0 1440 960" xml:space="preserve">
<g id="row-1">
	<path id="list-tranding" d="M780,150c0,180,0,180,0,360c0,49.7-40.3,90-90,90s-90-40.3-90-90c0-65.7,0-107.5,0-142.7
		C446,521.6,244.3,723,153.6,813.6l0,0C137.4,829.9,114.9,840,90,840c-49.7,0-90-40.3-90-90c0-24.9,10.1-47.4,26.4-63.6
		c90.7-90.7,292-292,446.4-446.4c-35.3,0-77,0-142.7,0c-49.7,0-90-40.3-90-90s40.3-90,90-90c180,0,180,0,360,0
		C739.7,60,780,100.3,780,150z M1050,180c100,0,200,0,300,0c49.7,0,90-40.3,90-90s-40.3-90-90-90c-100,0-200,0-300,0
		c-49.7,0-90,40.3-90,90S1000.3,180,1050,180z M1350,360c-100,0-200,0-300,0c-49.7,0-90,40.3-90,90s40.3,90,90,90c100,0,200,0,300,0
		c49.7,0,90-40.3,90-90S1399.7,360,1350,360z M1350,720c-160,0-320,0-480,0c-49.7,0-90,40.3-90,90s40.3,90,90,90c160,0,320,0,480,0
		c49.7,0,90-40.3,90-90S1399.7,720,1350,720z"/>
</g>
<g id="guides">
</g>
</svg>
