<?xml version="1.0" encoding="utf-8"?>
<!-- Generator: Adobe Illustrator 19.2.1, SVG Export Plug-In . SVG Version: 6.00 Build 0)  -->
<svg version="1.1" xmlns="http://www.w3.org/2000/svg" xmlns:xlink="http://www.w3.org/1999/xlink" x="0px" y="0px"
	 viewBox="0 0 1260 960" enable-background="new 0 0 1260 960" xml:space="preserve">
<g id="row-7">
</g>
<g id="row-6">
</g>
<g id="row-5">
</g>
<g id="row-4">
	<g id="mail-off_1_">
		<path id="mail-off" d="M1221.9,796.5c-27.7-20-77.8-56.2-141.9-102.5V300c0-99.4-80.6-180-180-180H300c-4.7,0-9.4,0.2-14,0.5
			C221.1,73.7,170.5,37.1,142.8,17.1C128,6.4,109.7,0,90,0C40.3,0,0,40.3,0,90c0,30.4,15,57.2,38.1,73.5
			c147.8,106.8,933.1,673.9,1079.1,779.3c14.8,10.8,33.1,17.1,52.8,17.1c49.7,0,90-40.3,90-90C1260,839.6,1245,812.8,1221.9,796.5z
			 M868.7,308.8c9.1-5.6,19.9-8.8,31.3-8.8c33.1,0,60,26.9,60,60c0,21.9-11.7,41.1-29.3,51.5c-45.2,27.1-88.8,53.2-132.1,79.3
			c-34.8-25.2-70.3-50.8-105.8-76.4C750.8,379.6,808.2,345.1,868.7,308.8z M120,369.4C337.2,526.2,660.4,759.6,854.7,900H300
			c-99.4,0-180-80.6-180-180V369.4z"/>
	</g>
	<g id="markdown">
	</g>
	<g id="info">
	</g>
	<g id="folder">
	</g>
	<g id="read-full_2_">
	</g>
	<g id="person">
	</g>
	<g id="eye">
	</g>
	<g id="clear">
	</g>
	<g id="arrow-right-rod">
	</g>
	<g id="contract">
	</g>
	<g id="expand">
	</g>
	<g id="speaker-off">
	</g>
	<g id="speaker-on">
	</g>
	<g id="pause">
	</g>
	<g id="play">
	</g>
</g>
<g id="row-3">
	<g id="circle-arrow">
	</g>
	<g id="speedometer">
	</g>
	<g id="calendar">
	</g>
	<g id="server">
	</g>
	<g id="code-file">
	</g>
	<g id="gear">
	</g>
	<g id="tint">
	</g>
	<g id="dribbble">
	</g>
	<g id="globe">
	</g>
	<g id="github">
	</g>
	<g id="facebook">
	</g>
	<g id="twitter">
	</g>
	<g id="skype">
	</g>
	<g id="phone">
	</g>
	<g id="mail">
	</g>
</g>
<g id="row-2">
	<g id="liferay-logo-2">
	</g>
	<g id="menu-content">
	</g>
	<g id="streams">
	</g>
	<g id="balloon-topic">
	</g>
	<g id="groups">
	</g>
	<g id="liferay-logo">
	</g>
	<g id="heart-full">
	</g>
	<g id="confirm">
	</g>
	<g id="send">
	</g>
	<g id="arrow-left-rod">
	</g>
	<g id="cancel_1_">
	</g>
	<g id="plus">
	</g>
</g>
<g id="row-1">
	<g id="bullhorn">
	</g>
	<g id="link">
	</g>
	<g id="pen">
	</g>
	<g id="bell">
	</g>
	<g id="magnifier">
	</g>
	<g id="menu">
	</g>
	<g id="ellipsis">
	</g>
	<g id="balloon-comment">
	</g>
	<g id="heart-inline">
	</g>
	<g id="heart">
	</g>
	<g id="camera">
	</g>
	<g id="lock">
	</g>
	<g id="star">
	</g>
</g>
<g id="guides">
</g>
</svg>
