<?xml version="1.0" encoding="utf-8"?>
<!-- Generator: Adobe Illustrator 19.2.1, SVG Export Plug-In . SVG Version: 6.00 Build 0)  -->
<svg version="1.1" xmlns="http://www.w3.org/2000/svg" xmlns:xlink="http://www.w3.org/1999/xlink" x="0px" y="0px"
	 viewBox="0 0 1040 960" enable-background="new 0 0 1040 960" xml:space="preserve">
<g id="row-5">
</g>
<g id="row-4">
</g>
<g id="row-3">
	<g id="alert">
	</g>
	<g id="expand">
	</g>
	<g id="collapse">
	</g>
	<g id="colections">
	</g>
	<g id="briefcase">
	</g>
	<g id="flag">
	</g>
	<g id="flag-small">
	</g>
	<g id="signpost">
	</g>
	<g id="info-card">
	</g>
	<g id="journal">
	</g>
	<g id="network">
	</g>
	<g id="trash">
	</g>
	<g id="card">
	</g>
	<g id="browser">
	</g>
	<g id="arrows">
	</g>
	<g id="arrow-left-rod">
	</g>
</g>
<g id="row-2">
	<g id="arrow-right-rod">
	</g>
	<g id="arrow-up-short">
	</g>
	<g id="arrow-down-short">
	</g>
	<g id="heart-full">
	</g>
	<g id="balloon-comments-inline">
	</g>
	<g id="balloon-comments">
	</g>
	<g id="check">
	</g>
	<g id="balloon-topic">
	</g>
	<g id="persons">
	</g>
	<g id="groups">
	</g>
	<g id="building-big">
	</g>
	<g id="person-card-2">
	</g>
	<g id="person-card-3">
	</g>
	<g id="plus">
	</g>
	<g id="arrow-right-long">
	</g>
	<g id="arrow-left-long">
	</g>
</g>
<g id="row-1">
	<g id="heart-inline">
	</g>
	<g id="close-short">
	</g>
	<g id="hash">
	</g>
	<g id="people">
	</g>
	<g id="building-small">
	</g>
	<g id="person">
	</g>
	<g id="close-long">
	</g>
	<path id="post_1_" d="M880,0C560,0,480,0,160,0C71.6,0,0,71.6,0,160c0,280,0,280,0,560c0,88.4,71.6,160,160,160c320,0,400,0,720,0
		c88.4,0,160-71.6,160-160c0-280,0-280,0-560C1040,71.6,968.4,0,880,0z M280,160c66.3,0,120,53.7,120,120s-53.7,120-120,120
		s-120-53.7-120-120S213.7,160,280,160z M840,720c-80,0-560,0-640,0c-22.1,0-40-17.9-40-40s17.9-40,40-40c80,0,560,0,640,0
		c22.1,0,40,17.9,40,40S862.1,720,840,720z M840,560c-80,0-560,0-640,0c-22.1,0-40-17.9-40-40s17.9-40,40-40c80,0,560,0,640,0
		c22.1,0,40,17.9,40,40S862.1,560,840,560z M840,400c-80,0-200,0-280,0c-22.1,0-40-17.9-40-40s17.9-40,40-40c80,0,200,0,280,0
		c22.1,0,40,17.9,40,40S862.1,400,840,400z M840,240c-80,0-200,0-280,0c-22.1,0-40-17.9-40-40s17.9-40,40-40c80,0,200,0,280,0
		c22.1,0,40,17.9,40,40S862.1,240,840,240z"/>
	<g id="star">
	</g>
	<g id="heart">
	</g>
	<g id="link">
	</g>
	<g id="camera">
	</g>
	<g id="balloon-text">
	</g>
	<g id="pin">
	</g>
	<g id="clock">
	</g>
</g>
<g id="guides">
</g>
</svg>
